<?xml version="1.0" encoding="utf-8"?>
<!-- Generator: Adobe Illustrator 14.0.0, SVG Export Plug-In  -->
<!DOCTYPE svg PUBLIC "-//W3C//DTD SVG 1.1//EN" "http://www.w3.org/Graphics/SVG/1.1/DTD/svg11.dtd" [
	<!ENTITY ns_flows "http://ns.adobe.com/Flows/1.0/">
]>
<svg version="1.1"
	 xmlns="http://www.w3.org/2000/svg" xmlns:xlink="http://www.w3.org/1999/xlink" xmlns:a="http://ns.adobe.com/AdobeSVGViewerExtensions/3.0/"
	 x="0px" y="0px" width="300px" height="280px" viewBox="-9.907 0.25 300 280" enable-background="new -9.907 0.25 300 280"
	 xml:space="preserve">
<defs>
</defs>
<path d="M280,140C280,62.679,217.319,0,140,0C62.678,0,0,62.679,0,140C0,217.323,62.678,280,140,280C217.318,280,280,217.32,280,140
	z M49.76,119.935c0-49.769,40.345-90.114,90.109-90.114c49.769,0,90.112,40.345,90.112,90.114
	C229.982,169.701,49.76,169.701,49.76,119.935z M100.089,209.345l27.493,0.012l0.012-26.299l24.394-0.015l0.001,26.29l27.919,0.026
	l-39.902,39.902L100.089,209.345z M100.089,209.345l27.493,0.012l0.012-26.299l24.394-0.015l0.001,26.29l27.919,0.026
	l-39.902,39.902L100.089,209.345z"/>
<path fill="#FFFFFF" d="M49.76,119.935c0-49.769,40.345-90.114,90.109-90.114c49.769,0,90.112,40.345,90.112,90.114
	C229.982,169.701,49.76,169.701,49.76,119.935z"/>
<polygon fill="#FFFFFF" points="100.089,209.345 127.583,209.357 127.594,183.058 151.988,183.043 151.989,209.333 179.908,209.36 
	140.005,249.262 "/>
</svg>
