<?xml version="1.0" encoding="utf-8"?>
<!-- Generator: Adobe Illustrator 14.0.0, SVG Export Plug-In  -->
<!DOCTYPE svg PUBLIC "-//W3C//DTD SVG 1.1//EN"
		"http://www.w3.org/Graphics/SVG/1.1/DTD/svg11.dtd" [
	<!ENTITY ns_flows "http://ns.adobe.com/Flows/1.0/">
	<!ENTITY st0 "fill:#FFFFFF;">
]>
<svg version="1.1"
	 xmlns="http://www.w3.org/2000/svg"
	 xmlns:xlink="http://www.w3.org/1999/xlink"
	 xmlns:a="http://ns.adobe.com/AdobeSVGViewerExtensions/3.0/"
	 x="0px" y="0px" 
	 width="460px" height="410px" 
	 viewBox="0 0 460 410"
	 style="enable-background:new 0 0 460 410;" xml:space="preserve">
<defs>
</defs>
<path style="&st0;" d="M31.28,144.583v120.838c0.037,63.688,52.351,115.308,117.162,115.394h163.206
	c64.642-0.086,116.931-51.706,117.125-115.394V144.583C428.579,80.77,376.29,29.291,311.648,29.148H148.443
	C83.631,29.291,31.316,80.77,31.28,144.583"/>
<path d="M148.443,410C66.467,410,0,345.1,0,265.012V145.115C0,64.901,66.467,0.085,148.443,0l163.206,0.085
	C393.572,0.085,460,64.901,460,145.115v119.896C460,345.1,393.572,410,311.649,410H148.443z M31.28,145.115v119.896
	c0.037,63.192,52.351,114.409,117.162,114.495h163.206c64.642-0.086,116.931-51.303,117.125-114.495V145.115
	C428.579,81.799,376.29,30.72,311.648,30.579H148.443C83.631,30.72,31.316,81.799,31.28,145.115"/>
<path d="M323.7,204.501c0-51.756-41.951-93.711-93.7-93.711c-51.75,0-93.699,41.955-93.699,93.711
	c0,51.758,41.949,93.712,93.699,93.712C281.748,298.213,323.7,256.257,323.7,204.501z M169.604,191.07
	c0-33.313,27.002-60.319,60.309-60.319c33.31,0,60.311,27.005,60.311,60.319C290.223,224.382,169.604,224.382,169.604,191.07z
	 M203.289,250.919l18.4,0.008l0.008-17.604l16.326-0.01l0.001,17.598l18.686,0.018l-26.706,26.709L203.289,250.919z"/>
</svg>
