<?xml version="1.0" encoding="utf-8"?>
<!-- Generator: Adobe Illustrator 14.0.0, SVG Export Plug-In  -->
<!DOCTYPE svg PUBLIC "-//W3C//DTD SVG 1.1//EN" "http://www.w3.org/Graphics/SVG/1.1/DTD/svg11.dtd" [
	<!ENTITY ns_flows "http://ns.adobe.com/Flows/1.0/">
]>
<svg version="1.1"
	 xmlns="http://www.w3.org/2000/svg" xmlns:xlink="http://www.w3.org/1999/xlink" xmlns:a="http://ns.adobe.com/AdobeSVGViewerExtensions/3.0/"
	 x="0px" y="0px" width="300px" height="280px" viewBox="-9.907 0.25 300 280" enable-background="new -9.907 0.25 300 280"
	 xml:space="preserve">
<defs>
</defs>
<path d="M280,139.999C280,62.679,217.319,0,139.999,0S0,62.679,0,140C0,217.323,62.678,280,140,280
	C217.319,280,280,217.32,280,139.999z M49.76,119.935c0-49.769,40.344-90.114,90.11-90.114c49.768,0,90.112,40.345,90.112,90.113
	C229.982,169.7,49.76,169.701,49.76,119.935z M100.09,209.345l27.492,0.012l0.012-26.299l24.395-0.014v26.289l27.92,0.026
	l-39.902,39.902L100.09,209.345z M100.09,209.345l27.492,0.012l0.012-26.299l24.395-0.014v26.289l27.92,0.026l-39.902,39.902
	L100.09,209.345z"/>
<path fill="#FFFFFF" d="M49.76,119.935c0-49.769,40.344-90.114,90.11-90.114c49.768,0,90.112,40.345,90.112,90.113
	C229.982,169.7,49.76,169.701,49.76,119.935z"/>
<polygon points="100.09,88.345 127.583,88.357 127.594,62.058 151.989,62.044 151.989,88.333 179.909,88.361 140.006,128.263 "/>
</svg>
