<?xml version="1.0" encoding="iso-8859-1"?>
<!-- Generator: Adobe Illustrator 17.1.0, SVG Export Plug-In . SVG Version: 6.00 Build 0)  -->
<!DOCTYPE svg PUBLIC "-//W3C//DTD SVG 1.1//EN" "http://www.w3.org/Graphics/SVG/1.1/DTD/svg11.dtd">
<svg version="1.1" id="Capa_1" xmlns="http://www.w3.org/2000/svg" xmlns:xlink="http://www.w3.org/1999/xlink" x="0px" y="0px"
	 viewBox="0 0 442.924 442.924" style="enable-background:new 0 0 442.924 442.924;" xml:space="preserve">
<g>
	<path d="M221.462,209.169c-22.308,0-43.28,8.687-59.055,24.461c-32.563,32.563-32.563,85.547,0,118.109
		c15.774,15.774,36.747,24.462,59.055,24.462s43.28-8.688,59.055-24.462c32.563-32.563,32.563-85.546,0-118.109
		C264.742,217.855,243.77,209.169,221.462,209.169z"/>
	<path d="M88.838,260.933H0v68.071h88.838l-1.254-6.02c-3.87-18.59-3.87-37.442,0-56.032L88.838,260.933z"/>
	<path d="M249.478,161.091l6.02,1.254V66.723h-68.07v95.622l6.02-1.254C211.825,157.265,231.099,157.265,249.478,161.091z"/>
	<path d="M148.83,178.907l-72.37-72.37l-48.133,48.134l73.563,73.563l3.326-5.354c5.577-8.978,12.144-17.268,19.516-24.641
		c5.787-5.787,12.233-11.145,19.159-15.925L148.83,178.907z"/>
	<path d="M366.463,106.537l-72.369,72.37l4.938,3.408c6.926,4.78,13.372,10.138,19.158,15.924
		c7.376,7.376,13.941,15.667,19.517,24.642l3.325,5.354l73.564-73.563L366.463,106.537z"/>
	<path d="M354.086,260.933l1.254,6.02c3.87,18.59,3.87,37.442,0,56.032l-1.254,6.02h88.838v-68.071H354.086z"/>
</g>
</svg>
