<?xml version="1.0" encoding="iso-8859-1"?>
<!-- Generator: Adobe Illustrator 17.1.0, SVG Export Plug-In . SVG Version: 6.00 Build 0)  -->
<!DOCTYPE svg PUBLIC "-//W3C//DTD SVG 1.1//EN" "http://www.w3.org/Graphics/SVG/1.1/DTD/svg11.dtd">
<svg version="1.1" id="Capa_1" xmlns="http://www.w3.org/2000/svg" xmlns:xlink="http://www.w3.org/1999/xlink" x="0px" y="0px"
	 viewBox="0 0 477.201 477.201" style="enable-background:new 0 0 477.201 477.201;" xml:space="preserve">
<g>
	<path d="M280.019,238.601c0-22.132-18.006-40.138-40.139-40.138c-0.207,0-0.412,0.012-0.618,0.016
		c-0.207-0.003-0.411-0.016-0.618-0.016c-22.132,0-40.138,18.006-40.138,40.138s18.006,40.138,40.138,40.138
		c0.207,0,0.412-0.012,0.618-0.016c0.207,0.003,0.411,0.016,0.618,0.016C262.013,278.738,280.019,260.732,280.019,238.601z"/>
	<path d="M171.48,238.601c0-26.589,16.895-50.226,42.04-58.815l3.384-1.156v-45.922l-6.06,1.313
		c-23.513,5.098-44.886,18.228-60.183,36.971c-15.517,19.013-24.062,43.023-24.062,67.609s8.545,48.597,24.062,67.61
		c15.297,18.743,36.67,31.872,60.183,36.97l6.06,1.313v-45.922l-3.384-1.156C188.375,288.826,171.48,265.189,171.48,238.601z"/>
	<path d="M266.356,134.021l-6.06-1.313v45.922l3.384,1.156c25.146,8.59,42.04,32.227,42.04,58.815s-16.895,50.226-42.04,58.815
		l-3.384,1.156v45.922l6.06-1.313c23.513-5.098,44.886-18.227,60.183-36.97c15.517-19.014,24.062-43.024,24.062-67.61
		s-8.545-48.597-24.062-67.609C311.242,152.248,289.869,139.118,266.356,134.021z"/>
</g>
</svg>
