<?xml version="1.0" encoding="utf-8"?>
<!-- Generator: Adobe Illustrator 14.0.0, SVG Export Plug-In . SVG Version: 6.00 Build 43363)  -->
<!DOCTYPE svg PUBLIC "-//W3C//DTD SVG 1.1//EN" "http://www.w3.org/Graphics/SVG/1.1/DTD/svg11.dtd">
<svg version="1.1" id="图层_1" xmlns="http://www.w3.org/2000/svg" xmlns:xlink="http://www.w3.org/1999/xlink" x="0px" y="0px"
	 width="460.8px" height="410.6px" viewBox="169.6 94.8 460.8 410.6" style="enable-background:new 169.6 94.8 460.8 410.6;"
	 xml:space="preserve">
<style type="text/css">
<![CDATA[
	.st0{fill:#FFFFFF;}
]]>
</style>
<path class="st0" d="M318.3,505.4c-82.1,0-148.7-65-148.7-145.2V240.1c0-80.3,66.5-145.3,148.7-145.3l163.4,0.1
	c82.1,0,148.7,64.9,148.7,145.3v120.1c0,80.2-66.5,145.2-148.7,145.2L318.3,505.4L318.3,505.4z"/>
<g>
	<g>
		<path d="M318.3,505.4c-82.1,0-148.7-65-148.7-145.2V240.1c0-80.3,66.5-145.3,148.7-145.3l163.4,0.1c82.1,0,148.7,64.9,148.7,145.3
			v120.1c0,80.2-66.5,145.2-148.7,145.2L318.3,505.4L318.3,505.4z M200.9,240.1v120.1c0.1,63.3,52.5,114.6,117.4,114.7h163.4
			c64.9-0.1,117.2-51.4,117.4-114.7V240.1c-0.2-63.4-52.6-114.6-117.4-114.7H318.3C253.4,125.6,201,176.7,200.9,240.1"/>
	</g>
	<g>
		<rect x="315.3" y="279.4" width="169.3" height="41.4"/>
		<rect x="379.3" y="215.5" width="41.4" height="169.3"/>
	</g>
</g>
</svg>
