<?xml version="1.0" encoding="utf-8"?>
<!-- Generator: Adobe Illustrator 14.0.0, SVG Export Plug-In  -->
<!DOCTYPE svg PUBLIC "-//W3C//DTD SVG 1.1//EN" "http://www.w3.org/Graphics/SVG/1.1/DTD/svg11.dtd" [
	<!ENTITY ns_flows "http://ns.adobe.com/Flows/1.0/">
	<!ENTITY st0 "fill:#FFFFFF;">
]>
<svg version="1.1"
	 xmlns="http://www.w3.org/2000/svg" xmlns:xlink="http://www.w3.org/1999/xlink" xmlns:a="http://ns.adobe.com/AdobeSVGViewerExtensions/3.0/"
	 x="0px" y="0px" width="461px" height="409px" viewBox="0 0 461 409" style="enable-background:new 0 0 461 409;"
	 xml:space="preserve">
<defs>
</defs>
<path style="&st0;" d="M148.691,410.636C66.576,410.636,0,345.634,0,265.423V145.34C0,65.001,66.576,0.085,148.691,0L312.17,0.085
	c82.069,0,148.603,64.916,148.603,145.255v120.083c0,80.211-66.532,145.213-148.603,145.213H148.691z"/>
<path d="M312.17,0.085L148.691,0C66.576,0.085,0,65.001,0,145.34v120.083c0,80.211,66.576,145.213,148.691,145.213H312.17
	c82.07,0,148.603-65.002,148.603-145.213V145.34C460.772,65.001,394.239,0.085,312.17,0.085z M429.489,265.423
	c-0.183,63.289-52.566,114.586-117.32,114.672H148.689c-64.92-0.086-117.32-51.383-117.358-114.672V145.34
	C31.369,81.926,83.77,30.768,148.691,30.626h163.478c64.754,0.142,117.137,51.3,117.32,114.714V265.423z"/>
<rect x="316.811" y="160.167" width="30.8" height="90.301"/>
<path d="M206.027,111.462c-51.836,0-93.856,42.021-93.856,93.856c0,51.836,42.021,93.855,93.856,93.855
	c51.837,0,93.856-42.02,93.856-93.855C299.884,153.484,257.863,111.462,206.027,111.462z M192.575,265.814
	c-33.364,0-60.412-27.047-60.412-60.409c0-33.365,27.048-60.411,60.412-60.411C225.938,144.994,225.938,265.814,192.575,265.814z"/>
</svg>
