<?xml version="1.0" encoding="utf-8"?>
<!-- Generator: Adobe Illustrator 14.0.0, SVG Export Plug-In  -->
<!DOCTYPE svg PUBLIC "-//W3C//DTD SVG 1.1//EN" "http://www.w3.org/Graphics/SVG/1.1/DTD/svg11.dtd" [
	<!ENTITY ns_flows "http://ns.adobe.com/Flows/1.0/">
]>
<svg version="1.1"
	 xmlns="http://www.w3.org/2000/svg" xmlns:xlink="http://www.w3.org/1999/xlink" xmlns:a="http://ns.adobe.com/AdobeSVGViewerExtensions/3.0/"
	 x="0px" y="0px" width="450px" height="420px" viewBox="0 0 450 420" enable-background="new 0 0 450 420" xml:space="preserve">
<defs>
</defs>
<path fill="#FFFFFF" d="M30.612,148.657v122.818c0.035,64.727,51.21,117.192,114.614,117.288h159.654
	c63.235-0.096,114.39-52.562,114.577-117.288V148.657c-0.188-64.862-51.342-117.194-114.577-117.331H145.227
	C81.823,31.463,30.647,83.795,30.612,148.657"/>
<path d="M145.227,420C65.027,420,0,353.518,0,271.474V148.655C0,66.482,65.027,0.088,145.227,0l159.654,0.088
	C385.023,0.088,450,66.482,450,148.655v122.818C450,353.518,385.023,420,304.881,420H145.227L145.227,420z M30.612,148.657v122.818
	c0.035,64.727,51.21,117.192,114.614,117.288h159.654c63.235-0.096,114.39-52.562,114.577-117.288V148.657
	c-0.188-64.862-51.342-117.194-114.577-117.331H145.227C81.823,31.463,30.647,83.795,30.612,148.657"/>
<circle cx="144.498" cy="290.05" r="40.235"/>
<circle cx="224.792" cy="209.756" r="40.235"/>
<circle cx="304.93" cy="129.618" r="40.235"/>
</svg>
