<?xml version="1.0" encoding="utf-8"?>
<!-- Generator: Adobe Illustrator 14.0.0, SVG Export Plug-In  -->
<!DOCTYPE svg PUBLIC "-//W3C//DTD SVG 1.1//EN" "http://www.w3.org/Graphics/SVG/1.1/DTD/svg11.dtd" [
	<!ENTITY ns_flows "http://ns.adobe.com/Flows/1.0/">
]>
<svg version="1.1"
	 xmlns="http://www.w3.org/2000/svg" xmlns:xlink="http://www.w3.org/1999/xlink" xmlns:a="http://ns.adobe.com/AdobeSVGViewerExtensions/3.0/"
	 x="0px" y="0px" width="450px" height="420px" viewBox="0 0 450 420" enable-background="new 0 0 450 420" xml:space="preserve">
<defs>
</defs>
<path fill="#FFFFFF" d="M30.612,148.657v122.818c0.035,64.727,51.21,117.192,114.614,117.288h159.654
	c63.235-0.096,114.39-52.562,114.577-117.288V148.657c-0.188-64.862-51.342-117.194-114.577-117.331H145.227
	C81.823,31.463,30.647,83.795,30.612,148.657"/>
<path d="M145.227,420C65.027,420,0,353.518,0,271.474V148.655C0,66.482,65.027,0.088,145.227,0l159.654,0.088
	C385.023,0.088,450,66.482,450,148.655v122.818C450,353.518,385.023,420,304.881,420H145.227L145.227,420z M30.612,148.657v122.818
	c0.035,64.727,51.21,117.192,114.614,117.288h159.654c63.235-0.096,114.39-52.562,114.577-117.288V148.657
	c-0.188-64.862-51.342-117.194-114.577-117.331H145.227C81.823,31.463,30.647,83.795,30.612,148.657"/>
<path d="M305.184,89.714c-22.135,0-40.096,17.966-40.096,40.079c0,18.677,12.807,34.189,30.085,38.681v31.489h-31.511
	c-4.466-17.279-19.999-30.091-38.673-30.091c-18.652,0-34.21,12.813-38.677,30.091H134.78v51.514
	c-17.253,4.489-30.039,20.025-30.039,38.679c0,22.161,17.915,40.129,40.098,40.129c22.136,0,40.075-17.968,40.075-40.129
	c0-18.653-12.812-34.236-30.063-38.679v-31.465h31.461c4.466,17.255,20.025,30.088,38.675,30.088
	c18.674,0,34.233-12.833,38.674-30.088h51.534v-51.538c17.275-4.442,30.063-20.003,30.063-38.681
	C345.257,107.681,327.316,89.714,305.184,89.714z M170.526,294.147c0,14.148-11.469,25.617-25.613,25.617
	c-14.147,0-25.614-11.469-25.614-25.617C119.299,280,170.526,280,170.526,294.147z M223.289,236.507
	c-14.433,0-26.133-11.701-26.133-26.136c0-14.437,11.7-26.138,26.133-26.138C237.722,184.233,237.722,236.507,223.289,236.507z
	 M304.992,158.953c-14.147,0-25.615-11.469-25.615-25.617s51.226-14.148,51.226,0S319.135,158.953,304.992,158.953z"/>
</svg>
