<?xml version="1.0" encoding="iso-8859-1"?>
<!-- Generator: Adobe Illustrator 17.1.0, SVG Export Plug-In . SVG Version: 6.00 Build 0)  -->
<!DOCTYPE svg PUBLIC "-//W3C//DTD SVG 1.1//EN" "http://www.w3.org/Graphics/SVG/1.1/DTD/svg11.dtd">
<svg version="1.1" id="Capa_1" xmlns="http://www.w3.org/2000/svg" xmlns:xlink="http://www.w3.org/1999/xlink" x="0px" y="0px"
	 viewBox="0 0 476.457 476.457" style="enable-background:new 0 0 476.457 476.457;" xml:space="preserve">
<g>
	<path d="M476.457,266.638l-106.729-69.476v40.108h-44.847c-22.215-66.023-84.698-113.709-158.112-113.709
		C74.812,123.562,0,198.375,0,290.331v5h65.308v-5c0-55.945,45.515-101.461,101.46-101.461s101.46,45.516,101.46,101.461v2.426
		l-0.65,3.248h102.149v40.108L476.457,266.638z"/>
	<path d="M166.769,231.118c-33.574,0-60.888,27.314-60.888,60.889c0,33.573,27.314,60.888,60.888,60.888
		s60.888-27.314,60.888-60.888C227.656,258.432,200.342,231.118,166.769,231.118z"/>
</g>
</svg>
