<?xml version="1.0" encoding="utf-8"?>
<!-- Generator: Adobe Illustrator 14.0.0, SVG Export Plug-In  -->
<!DOCTYPE svg PUBLIC "-//W3C//DTD SVG 1.1//EN" "http://www.w3.org/Graphics/SVG/1.1/DTD/svg11.dtd" [
	<!ENTITY ns_flows "http://ns.adobe.com/Flows/1.0/">
	<!ENTITY st0 "fill:#FFFFFF;">
]>
<svg version="1.1"
	 xmlns="http://www.w3.org/2000/svg" xmlns:xlink="http://www.w3.org/1999/xlink" xmlns:a="http://ns.adobe.com/AdobeSVGViewerExtensions/3.0/"
	 x="0px" y="0px" width="460px" height="411px" viewBox="1 0 460 411" style="enable-background:new 1 0 460 411;"
	 xml:space="preserve">
<defs>
</defs>
<path style="&st0;" d="M148.69,411.633C66.548,411.633,0,346.631,0,266.42V146.337C0,66,66.548,1.086,148.69,1l163.408,0.086
	c82.146,0,148.684,64.914,148.684,145.251V266.42c0,80.211-66.538,145.213-148.684,145.213H148.69z"/>
<path d="M313.099,0.086L149.69,0C67.548,0.086,1,65,1,145.337V265.42c0,80.211,66.548,145.213,148.69,145.213h163.408
	c82.146,0,148.684-65.002,148.684-145.213V145.337C461.782,65,395.244,0.086,313.099,0.086z M430.536,265.42
	c-0.213,63.285-52.569,114.586-117.438,114.672H149.69c-64.871-0.086-117.265-51.387-117.4-114.672V145.337
	c0.135-63.416,52.528-114.573,117.4-114.71h163.408c64.869,0.137,117.225,51.294,117.438,114.71V265.42z"/>
<path d="M206.826,111.46c-51.836,0-93.856,42.023-93.856,93.857c0,51.835,42.021,93.855,93.856,93.855
	c51.837,0,93.856-42.02,93.856-93.855C300.683,153.483,258.662,111.46,206.826,111.46z M193.374,265.813
	c-33.364,0-60.412-27.046-60.412-60.41c0-33.365,27.048-60.41,60.412-60.41C226.737,144.993,226.737,265.813,193.374,265.813z"/>
<polygon points="316.78,245.374 357.812,205.308 316.78,165.259 "/>
</svg>
